<?xml version="1.0" encoding="utf-8"?>
<!-- Generator: Adobe Illustrator 25.2.0, SVG Export Plug-In . SVG Version: 6.00 Build 0)  -->
<svg version="1.1" id="Layer_1" xmlns="http://www.w3.org/2000/svg" xmlns:xlink="http://www.w3.org/1999/xlink" x="0px" y="0px"
	 viewBox="0 0 1440 468.1" style="enable-background:new 0 0 1440 468.1;" xml:space="preserve">
<style type="text/css">
	.st0{fill:#FFFFFF;}
	.st1{fill:#E8EAED;}
	.st2{clip-path:url(#SVGID_2_);}
	.st3{fill:#E8F0FE;}
	.st4{fill:#AECBFA;}
	.st5{fill:#4285F4;}
	.st6{fill:#8AB4F8;}
	.st7{clip-path:url(#SVGID_4_);}
	.st8{fill:none;stroke:#E8EAED;stroke-width:1.2;stroke-miterlimit:10;}
	.st9{fill:#F1F3F4;}
	.st10{fill:#FDE293;}
	.st11{fill:#FBBC04;}
	.st12{fill:#E6F4EA;}
	.st13{clip-path:url(#SVGID_6_);}
	.st14{fill:#CEEAD6;}
	.st15{fill:#34A853;}
	.st16{fill:none;stroke:#34A853;stroke-width:3.2;stroke-miterlimit:10;}
	.st17{opacity:0.5;}
	.st18{fill:none;stroke:#34A853;stroke-width:1.2;stroke-miterlimit:10;}
</style>
<g>
	<rect x="863.8" y="-0.2" class="st0" width="35.5" height="35.5"/>
	<path class="st1" d="M899,0v35h-35V0H899 M899.5-0.5h-36v36h36V-0.5z"/>
	<rect x="827.8" y="-0.2" class="st0" width="35.5" height="35.5"/>
	<path class="st1" d="M863,0v35h-35V0H863 M863.5-0.5h-36v36h36V-0.5z"/>
	<rect x="899.8" y="-0.2" class="st0" width="35.5" height="35.5"/>
	<path class="st1" d="M935,0v35h-35V0H935 M935.5-0.5h-36v36h36V-0.5z"/>
	<rect x="1403.8" y="-0.2" class="st0" width="35.5" height="35.5"/>
	<path class="st1" d="M1439,0v35h-35V0H1439 M1439.5-0.5h-36v36h36V-0.5z"/>
	<rect x="1367.8" y="-0.2" class="st0" width="35.5" height="35.5"/>
	<path class="st1" d="M1403,0v35h-35V0H1403 M1403.5-0.5h-36v36h36V-0.5z"/>
	<rect x="1331.8" y="-0.2" class="st0" width="35.5" height="35.5"/>
	<path class="st1" d="M1367,0v35h-35V0H1367 M1367.5-0.5h-36v36h36V-0.5z"/>
	<rect x="1295.8" y="-0.2" class="st0" width="35.5" height="35.5"/>
	<path class="st1" d="M1331,0v35h-35V0H1331 M1331.5-0.5h-36v36h36V-0.5z"/>
	<rect x="1259.8" y="-0.2" class="st0" width="35.5" height="35.5"/>
	<path class="st1" d="M1295,0v35h-35V0H1295 M1295.5-0.5h-36v36h36V-0.5z"/>
	<rect x="1223.8" y="-0.2" class="st0" width="35.5" height="35.5"/>
	<path class="st1" d="M1259,0v35h-35V0H1259 M1259.5-0.5h-36v36h36V-0.5z"/>
	<rect x="1187.8" y="-0.2" class="st0" width="35.5" height="35.5"/>
	<path class="st1" d="M1223,0v35h-35V0H1223 M1223.5-0.5h-36v36h36V-0.5z"/>
	<rect x="1151.8" y="-0.2" class="st0" width="35.5" height="35.5"/>
	<path class="st1" d="M1187,0v35h-35V0H1187 M1187.5-0.5h-36v36h36V-0.5z"/>
	<rect x="1115.8" y="-0.2" class="st0" width="35.5" height="35.5"/>
	<path class="st1" d="M1151,0v35h-35V0H1151 M1151.5-0.5h-36v36h36V-0.5z"/>
	<rect x="1079.8" y="-0.2" class="st0" width="35.5" height="35.5"/>
	<path class="st1" d="M1115,0v35h-35V0H1115 M1115.5-0.5h-36v36h36V-0.5z"/>
	<rect x="1043.8" y="-0.2" class="st0" width="35.5" height="35.5"/>
	<path class="st1" d="M1079,0v35h-35V0H1079 M1079.5-0.5h-36v36h36V-0.5z"/>
	<rect x="1007.8" y="-0.2" class="st0" width="35.5" height="35.5"/>
	<path class="st1" d="M1043,0v35h-35V0H1043 M1043.5-0.5h-36v36h36V-0.5z"/>
	<rect x="971.8" y="-0.2" class="st0" width="35.5" height="35.5"/>
	<path class="st1" d="M1007,0v35h-35V0H1007 M1007.5-0.5h-36v36h36V-0.5z"/>
	<rect x="935.8" y="-0.2" class="st0" width="35.5" height="35.5"/>
	<path class="st1" d="M971,0v35h-35V0H971 M971.5-0.5h-36v36h36V-0.5z"/>
	<rect x="863.8" y="35.8" class="st0" width="35.5" height="35.5"/>
	<path class="st1" d="M899,36v35h-35V36H899 M899.5,35.5h-36v36h36V35.5z"/>
	<rect x="899.8" y="35.8" class="st0" width="35.5" height="35.5"/>
	<path class="st1" d="M935,36v35h-35V36H935 M935.5,35.5h-36v36h36V35.5z"/>
	<rect x="1403.8" y="35.8" class="st0" width="35.5" height="35.5"/>
	<path class="st1" d="M1439,36v35h-35V36H1439 M1439.5,35.5h-36v36h36V35.5z"/>
	<rect x="1367.8" y="35.8" class="st0" width="35.5" height="35.5"/>
	<path class="st1" d="M1403,36v35h-35V36H1403 M1403.5,35.5h-36v36h36V35.5z"/>
	<rect x="1331.8" y="35.8" class="st0" width="35.5" height="35.5"/>
	<path class="st1" d="M1367,36v35h-35V36H1367 M1367.5,35.5h-36v36h36V35.5z"/>
	<rect x="1295.8" y="35.8" class="st0" width="35.5" height="35.5"/>
	<path class="st1" d="M1331,36v35h-35V36H1331 M1331.5,35.5h-36v36h36V35.5z"/>
	<rect x="1259.8" y="35.8" class="st0" width="35.5" height="35.5"/>
	<path class="st1" d="M1295,36v35h-35V36H1295 M1295.5,35.5h-36v36h36V35.5z"/>
	<rect x="1223.8" y="35.8" class="st0" width="35.5" height="35.5"/>
	<path class="st1" d="M1259,36v35h-35V36H1259 M1259.5,35.5h-36v36h36V35.5z"/>
	<rect x="1187.8" y="35.8" class="st0" width="35.5" height="35.5"/>
	<path class="st1" d="M1223,36v35h-35V36H1223 M1223.5,35.5h-36v36h36V35.5z"/>
	<rect x="1151.8" y="35.8" class="st0" width="35.5" height="35.5"/>
	<path class="st1" d="M1187,36v35h-35V36H1187 M1187.5,35.5h-36v36h36V35.5z"/>
	<rect x="1115.8" y="35.8" class="st0" width="35.5" height="35.5"/>
	<path class="st1" d="M1151,36v35h-35V36H1151 M1151.5,35.5h-36v36h36V35.5z"/>
	<rect x="1079.8" y="35.8" class="st0" width="35.5" height="35.5"/>
	<path class="st1" d="M1115,36v35h-35V36H1115 M1115.5,35.5h-36v36h36V35.5z"/>
	<rect x="1043.8" y="35.8" class="st0" width="35.5" height="35.5"/>
	<path class="st1" d="M1079,36v35h-35V36H1079 M1079.5,35.5h-36v36h36V35.5z"/>
	<rect x="1007.8" y="35.8" class="st0" width="35.5" height="35.5"/>
	<path class="st1" d="M1043,36v35h-35V36H1043 M1043.5,35.5h-36v36h36V35.5z"/>
	<rect x="971.8" y="35.8" class="st0" width="35.5" height="35.5"/>
	<path class="st1" d="M1007,36v35h-35V36H1007 M1007.5,35.5h-36v36h36V35.5z"/>
	<rect x="935.8" y="35.8" class="st0" width="35.5" height="35.5"/>
	<path class="st1" d="M971,36v35h-35V36H971 M971.5,35.5h-36v36h36V35.5z"/>
	<rect x="1367.8" y="71.8" class="st0" width="35.5" height="35.5"/>
	<path class="st1" d="M1403,72v35h-35V72H1403 M1403.5,71.5h-36v36h36V71.5z"/>
	<rect x="1331.8" y="71.8" class="st0" width="35.5" height="35.5"/>
	<path class="st1" d="M1367,72v35h-35V72H1367 M1367.5,71.5h-36v36h36V71.5z"/>
	<rect x="1295.8" y="71.8" class="st0" width="35.5" height="35.5"/>
	<path class="st1" d="M1331,72v35h-35V72H1331 M1331.5,71.5h-36v36h36V71.5z"/>
	<rect x="1259.8" y="71.8" class="st0" width="35.5" height="35.5"/>
	<path class="st1" d="M1295,72v35h-35V72H1295 M1295.5,71.5h-36v36h36V71.5z"/>
	<rect x="1223.8" y="71.8" class="st0" width="35.5" height="35.5"/>
	<path class="st1" d="M1259,72v35h-35V72H1259 M1259.5,71.5h-36v36h36V71.5z"/>
	<rect x="1187.8" y="71.8" class="st0" width="35.5" height="35.5"/>
	<path class="st1" d="M1223,72v35h-35V72H1223 M1223.5,71.5h-36v36h36V71.5z"/>
	<rect x="1151.8" y="71.8" class="st0" width="35.5" height="35.5"/>
	<path class="st1" d="M1187,72v35h-35V72H1187 M1187.5,71.5h-36v36h36V71.5z"/>
	<rect x="1115.8" y="71.8" class="st0" width="35.5" height="35.5"/>
	<path class="st1" d="M1151,72v35h-35V72H1151 M1151.5,71.5h-36v36h36V71.5z"/>
	<rect x="1331.8" y="107.8" class="st0" width="35.5" height="35.5"/>
	<path class="st1" d="M1367,108v35h-35v-35H1367 M1367.5,107.5h-36v36h36V107.5z"/>
	<rect x="1295.8" y="107.8" class="st0" width="35.5" height="35.5"/>
	<path class="st1" d="M1331,108v35h-35v-35H1331 M1331.5,107.5h-36v36h36V107.5z"/>
	<rect x="1259.8" y="107.8" class="st0" width="35.5" height="35.5"/>
	<path class="st1" d="M1295,108v35h-35v-35H1295 M1295.5,107.5h-36v36h36V107.5z"/>
	<rect x="1223.8" y="107.8" class="st0" width="35.5" height="35.5"/>
	<path class="st1" d="M1259,108v35h-35v-35H1259 M1259.5,107.5h-36v36h36V107.5z"/>
	<rect x="1187.8" y="107.8" class="st0" width="35.5" height="35.5"/>
	<path class="st1" d="M1223,108v35h-35v-35H1223 M1223.5,107.5h-36v36h36V107.5z"/>
	<rect x="1151.8" y="107.8" class="st0" width="35.5" height="35.5"/>
	<path class="st1" d="M1187,108v35h-35v-35H1187 M1187.5,107.5h-36v36h36V107.5z"/>
	<rect x="1115.8" y="107.8" class="st0" width="35.5" height="35.5"/>
	<path class="st1" d="M1151,108v35h-35v-35H1151 M1151.5,107.5h-36v36h36V107.5z"/>
	<path class="st1" d="M1439.5-0.5v72h-36v36h-36v36h-252v-72h-252v-36h-36v-36H1439.5 M1440-1H827v37h36v36h252v72h253v-36h36V72h36
		V-1L1440-1z"/>
	<g>
		<g>
			<g>
				<defs>
					<polygon id="SVGID_1_" points="1223.5,-0.5 935.4,-0.5 935.4,35.4 899.4,35.4 899.4,71.6 1043.5,71.6 1043.5,107.5 
						1223.5,107.5 					"/>
				</defs>
				<clipPath id="SVGID_2_">
					<use xlink:href="#SVGID_1_"  style="overflow:visible;"/>
				</clipPath>
				<g class="st2">
					<rect x="819" y="-18.5" class="st3" width="376.5" height="135.3"/>

						<ellipse transform="matrix(0.7071 -0.7071 0.7071 0.7071 281.2996 822.3317)" class="st4" cx="1133.3" cy="71.6" rx="124.3" ry="124.3"/>
					<path class="st5" d="M1133.3-51.2c67.8,0,122.7,55,122.7,122.7c0,67.8-55,122.7-122.7,122.7c-67.8,0-122.7-55-122.7-122.7
						c0-32.6,12.9-63.8,36-86.8C1069.5-38.3,1100.8-51.2,1133.3-51.2 M1133.3-54.4c-69.6,0-125.9,56.4-125.9,125.9
						s56.4,125.9,125.9,125.9s125.9-56.4,125.9-125.9l0,0C1259.3,2,1202.9-54.3,1133.3-54.4L1133.3-54.4z"/>
					<path class="st6" d="M1133.2,68.4c-15,0-27-12.2-27-27.2s12.2-27,27.2-27s27,12.2,27,27.2c0,14.9-12.1,27-27,27H1133.2z"/>
					<path class="st5" d="M1133.4,16L1133.4,16c14,0.3,25.1,11.9,24.8,26c-0.3,13.6-11.3,24.6-25,24.8h-0.2c-14-0.3-25.1-12-24.8-26
						C1108.7,27.1,1119.7,16.2,1133.4,16 M1133.4,12.8c-15.8,0.2-28.4,13.2-28.2,29c0.2,15.4,12.6,27.9,28,28.2h0.2
						c15.8-0.2,28.4-13.3,28.2-29.1C1161.2,25.6,1148.8,13.1,1133.4,12.8L1133.4,12.8z"/>
					<path class="st6" d="M1081.1,119.2v-17.5c11.8-11.9,31.4-19,52.6-19c20.8,0,40.3,6.9,52.3,18.5l-0.1,18H1081.1z"/>
					<path class="st5" d="M1133.7,84.3c20.1,0,38.9,6.5,50.7,17.6l-0.1,15.8h-101.6v-15.3C1094.3,91.1,1113.2,84.4,1133.7,84.3
						 M1133.7,81.2c-22.7,0-42.6,7.9-54.2,19.9v19.8h107.9l0.1-20.3C1175.8,88.9,1156.4,81.2,1133.7,81.2z"/>
				</g>
			</g>
		</g>
	</g>
	<g>
		<g>
			<g>
				<defs>
					<polygon id="SVGID_3_" points="1433.7,-0.5 1223.5,-0.5 1223.5,143.5 1367.5,143.5 1367.5,107.5 1403.7,107.5 					"/>
				</defs>
				<clipPath id="SVGID_4_">
					<use xlink:href="#SVGID_3_"  style="overflow:visible;"/>
				</clipPath>
				<g class="st7">
					<line class="st8" x1="1245.3" y1="-22" x2="1417.7" y2="237.6"/>
					<line class="st8" x1="1417" y1="-21" x2="1245.4" y2="237.5"/>
					<rect x="1273.4" y="187.3" class="st9" width="116.5" height="12.4"/>
					<rect x="1292.9" y="214.2" class="st9" width="77.6" height="12.4"/>
					<g>
						<path class="st10" d="M1388,99.6V62.7l-56.3-26.9l-56.2,26.9v36.9c0,34.7,24.2,67,56.2,75.8
							C1363.8,166.6,1388,134.2,1388,99.6z"/>
					</g>
					<path class="st11" d="M1331.7,39.3l53,25.3v34.9c0,32.7-22.8,63.7-53,72.5c-30.3-8.8-53-39.8-53-72.5V64.7L1331.7,39.3
						 M1331.7,35.8l-56.2,26.9v36.9c0,34.7,24.2,67,56.2,75.8c32.1-8.8,56.2-41.1,56.2-75.8V62.7L1331.7,35.8z"/>
				</g>
			</g>
		</g>
	</g>
</g>
<rect x="0.2" y="343.3" class="st0" width="35.5" height="35.5"/>
<path class="st1" d="M35.5,343.5v35h-35v-35H35.5 M36,343H0v36h36V343L36,343z"/>
<rect x="36.2" y="343.3" class="st0" width="35.5" height="35.5"/>
<path class="st1" d="M71.5,343.5v35h-35v-35H71.5 M72,343H36v36h36V343L72,343z"/>
<rect x="72.2" y="343.3" class="st0" width="35.5" height="35.5"/>
<path class="st1" d="M107.5,343.5v35h-35v-35H107.5 M108,343H72v36h36V343L108,343z"/>
<rect x="108.2" y="343.3" class="st0" width="35.5" height="35.5"/>
<path class="st1" d="M143.5,343.5v35h-35v-35H143.5 M144,343h-36v36h36V343L144,343z"/>
<rect x="144.2" y="343.3" class="st0" width="35.5" height="35.5"/>
<path class="st1" d="M179.5,343.5v35h-35v-35H179.5 M180,343h-36v36h36V343L180,343z"/>
<rect x="180.2" y="343.3" class="st0" width="35.5" height="35.5"/>
<path class="st1" d="M215.5,343.5v35h-35v-35H215.5 M216,343h-36v36h36V343L216,343z"/>
<rect x="216.2" y="343.3" class="st0" width="35.5" height="35.5"/>
<path class="st1" d="M251.5,343.5v35h-35v-35H251.5 M252,343h-36v36h36V343L252,343z"/>
<rect x="252.2" y="343.3" class="st0" width="35.5" height="35.5"/>
<path class="st1" d="M287.5,343.5v35h-35v-35H287.5 M288,343h-36v36h36V343L288,343z"/>
<rect x="288.2" y="343.3" class="st0" width="35.5" height="35.5"/>
<path class="st1" d="M323.5,343.5v35h-35v-35H323.5 M324,343h-36v36h36V343L324,343z"/>
<rect x="324.2" y="343.3" class="st0" width="35.5" height="35.5"/>
<path class="st1" d="M359.5,343.5v35h-35v-35H359.5 M360,343h-36v36h36V343L360,343z"/>
<rect x="360.2" y="343.3" class="st0" width="35.5" height="35.5"/>
<path class="st1" d="M395.5,343.5v35h-35v-35H395.5 M396,343h-36v36h36V343L396,343z"/>
<rect x="360.2" y="307.3" class="st0" width="35.5" height="35.5"/>
<path class="st1" d="M395.5,307.5v35h-35v-35H395.5 M396,307h-36v36h36V307L396,307z"/>
<rect x="0.2" y="307.3" class="st0" width="35.5" height="35.5"/>
<path class="st1" d="M35.5,307.5v35h-35v-35H35.5 M36,307H0v36h36V307L36,307z"/>
<rect x="36.2" y="307.3" class="st0" width="35.5" height="35.5"/>
<path class="st1" d="M71.5,307.5v35h-35v-35H71.5 M72,307H36v36h36V307L72,307z"/>
<rect x="72.2" y="307.3" class="st0" width="35.5" height="35.5"/>
<path class="st1" d="M107.5,307.5v35h-35v-35H107.5 M108,307H72v36h36V307L108,307z"/>
<rect x="108.2" y="307.3" class="st0" width="35.5" height="35.5"/>
<path class="st1" d="M143.5,307.5v35h-35v-35H143.5 M144,307h-36v36h36V307L144,307z"/>
<rect x="144.2" y="307.3" class="st0" width="35.5" height="35.5"/>
<path class="st1" d="M179.5,307.5v35h-35v-35H179.5 M180,307h-36v36h36V307L180,307z"/>
<rect x="180.2" y="307.3" class="st0" width="35.5" height="35.5"/>
<path class="st1" d="M215.5,307.5v35h-35v-35H215.5 M216,307h-36v36h36V307L216,307z"/>
<rect x="216.2" y="307.3" class="st0" width="35.5" height="35.5"/>
<path class="st1" d="M251.5,307.5v35h-35v-35H251.5 M252,307h-36v36h36V307L252,307z"/>
<rect x="252.2" y="307.3" class="st0" width="35.5" height="35.5"/>
<path class="st1" d="M287.5,307.5v35h-35v-35H287.5 M288,307h-36v36h36V307L288,307z"/>
<rect x="288.2" y="307.3" class="st0" width="35.5" height="35.5"/>
<path class="st1" d="M323.5,307.5v35h-35v-35H323.5 M324,307h-36v36h36V307L324,307z"/>
<rect x="324.2" y="307.3" class="st0" width="35.5" height="35.5"/>
<path class="st1" d="M359.5,307.5v35h-35v-35H359.5 M360,307h-36v36h36V307L360,307z"/>
<rect x="0.2" y="271.3" class="st0" width="35.5" height="35.5"/>
<path class="st1" d="M35.5,271.5v35h-35v-35H35.5 M36,271H0v36h36V271L36,271z"/>
<rect x="36.2" y="271.3" class="st0" width="35.5" height="35.5"/>
<path class="st1" d="M71.5,271.5v35h-35v-35H71.5 M72,271H36v36h36V271L72,271z"/>
<rect x="72.2" y="271.3" class="st0" width="35.5" height="35.5"/>
<path class="st1" d="M107.5,271.5v35h-35v-35H107.5 M108,271H72v36h36V271L108,271z"/>
<rect x="108.2" y="271.3" class="st0" width="35.5" height="35.5"/>
<path class="st1" d="M143.5,271.5v35h-35v-35H143.5 M144,271h-36v36h36V271L144,271z"/>
<rect x="144.2" y="271.3" class="st0" width="35.5" height="35.5"/>
<path class="st1" d="M179.5,271.5v35h-35v-35H179.5 M180,271h-36v36h36V271L180,271z"/>
<rect x="180.2" y="271.3" class="st0" width="35.5" height="35.5"/>
<path class="st1" d="M215.5,271.5v35h-35v-35H215.5 M216,271h-36v36h36V271L216,271z"/>
<rect x="216.2" y="271.3" class="st0" width="35.5" height="35.5"/>
<path class="st1" d="M251.5,271.5v35h-35v-35H251.5 M252,271h-36v36h36V271L252,271z"/>
<rect x="252.2" y="271.3" class="st0" width="35.5" height="35.5"/>
<path class="st1" d="M287.5,271.5v35h-35v-35H287.5 M288,271h-36v36h36V271L288,271z"/>
<rect x="288.2" y="271.3" class="st0" width="35.5" height="35.5"/>
<path class="st1" d="M323.5,271.5v35h-35v-35H323.5 M324,271h-36v36h36V271L324,271z"/>
<rect x="324.2" y="271.3" class="st0" width="35.5" height="35.5"/>
<path class="st1" d="M359.5,271.5v35h-35v-35H359.5 M360,271h-36v36h36V271L360,271z"/>
<rect x="0.2" y="198.5" class="st0" width="35.5" height="35.5"/>
<path class="st1" d="M35.5,199v35h-35v-35H35.5 M36,198.5H0v36h36V198.5L36,198.5z"/>
<rect x="36.2" y="198.5" class="st0" width="35.5" height="35.5"/>
<path class="st1" d="M71.5,199v35h-35v-35H71.5 M72,198.5H36v36h36V198.5L72,198.5z"/>
<rect x="72.2" y="198.5" class="st0" width="35.5" height="35.5"/>
<path class="st1" d="M107.5,199v35h-35v-35H107.5 M108,198.5H72v36h36V198.5L108,198.5z"/>
<rect x="0.2" y="198.5" class="st0" width="35.5" height="35.5"/>
<path class="st1" d="M35.5,199v35h-35v-35H35.5 M36,198.5H0v36h36V198.5L36,198.5z"/>
<rect x="36.2" y="198.5" class="st0" width="35.5" height="35.5"/>
<path class="st1" d="M71.5,199v35h-35v-35H71.5 M72,198.5H36v36h36V198.5L72,198.5z"/>
<rect x="72.2" y="198.5" class="st0" width="35.5" height="35.5"/>
<path class="st1" d="M107.5,199v35h-35v-35H107.5 M108,198.5H72v36h36V198.5L108,198.5z"/>
<rect x="108.2" y="198.5" class="st0" width="35.5" height="35.5"/>
<path class="st1" d="M143.5,199v35h-35v-35H143.5 M144,198.5h-36v36h36V198.5L144,198.5z"/>
<rect x="144.2" y="235.3" class="st0" width="35.5" height="35.5"/>
<path class="st1" d="M179.5,235.5v35h-35v-35H179.5 M180,235h-36v36h36V235L180,235z"/>
<rect x="180.2" y="235.3" class="st0" width="35.5" height="35.5"/>
<path class="st1" d="M215.5,235.5v35h-35v-35H215.5 M216,235h-36v36h36V235L216,235z"/>
<rect x="216.2" y="235.3" class="st0" width="35.5" height="35.5"/>
<path class="st1" d="M251.5,235.5v35h-35v-35H251.5 M252,235h-36v36h36V235L252,235z"/>
<rect x="252.2" y="235.3" class="st0" width="35.5" height="35.5"/>
<path class="st1" d="M287.5,235.5v35h-35v-35H287.5 M288,235h-36v36h36V235L288,235z"/>
<rect x="288.2" y="235.3" class="st0" width="35.5" height="35.5"/>
<path class="st1" d="M323.5,235.5v35h-35v-35H323.5 M324,235h-36v36h36V235L324,235z"/>
<rect x="324.2" y="379.3" class="st0" width="35.5" height="35.5"/>
<path class="st1" d="M359.5,379.5v35h-35v-35H359.5 M360,379h-36v36h36V379L360,379z"/>
<rect x="0.2" y="379.3" class="st0" width="35.5" height="35.5"/>
<path class="st1" d="M35.5,379.5v35h-35v-35H35.5 M36,379H0v36h36V379L36,379z"/>
<rect x="36.2" y="379.3" class="st0" width="35.5" height="35.5"/>
<path class="st1" d="M71.5,379.5v35h-35v-35H71.5 M72,379H36v36h36V379L72,379z"/>
<rect x="72.2" y="379.3" class="st0" width="35.5" height="35.5"/>
<path class="st1" d="M107.5,379.5v35h-35v-35H107.5 M108,379H72v36h36V379L108,379z"/>
<rect x="108.2" y="379.3" class="st0" width="35.5" height="35.5"/>
<path class="st1" d="M143.5,379.5v35h-35v-35H143.5 M144,379h-36v36h36V379L144,379z"/>
<rect x="144.2" y="379.3" class="st0" width="35.5" height="35.5"/>
<path class="st1" d="M179.5,379.5v35h-35v-35H179.5 M180,379h-36v36h36V379L180,379z"/>
<rect x="180.2" y="379.3" class="st0" width="35.5" height="35.5"/>
<path class="st1" d="M215.5,379.5v35h-35v-35H215.5 M216,379h-36v36h36V379L216,379z"/>
<rect x="216.2" y="379.3" class="st0" width="35.5" height="35.5"/>
<path class="st1" d="M251.5,379.5v35h-35v-35H251.5 M252,379h-36v36h36V379L252,379z"/>
<rect x="252.2" y="379.3" class="st0" width="35.5" height="35.5"/>
<path class="st1" d="M287.5,379.5v35h-35v-35H287.5 M288,379h-36v36h36V379L288,379z"/>
<rect x="288.2" y="379.3" class="st0" width="35.5" height="35.5"/>
<path class="st1" d="M323.5,379.5v35h-35v-35H323.5 M324,379h-36v36h36V379L324,379z"/>
<path class="st1" d="M108,199v36h216v36h36v36h36v72h-36v36H-36V235H0v-36H108 M108.5,198.5h-109v36h-36v181h397v-36h36v-73h-36v-36
	h-36v-36h-216V198.5z"/>
<polygon class="st12" points="288,306.5 288,234.5 108,234.5 108,198.5 0,198.5 0,379 108,379 108,414.5 324,414.5 324,306.5 "/>
<g>
	<g>
		<g>
			<defs>
				<polygon id="SVGID_5_" points="288,306.5 288,234.5 108,234.5 108,198.5 0,198.5 0,379 108,379 108,414.5 324,414.5 324,306.5 
									"/>
			</defs>
			<clipPath id="SVGID_6_">
				<use xlink:href="#SVGID_5_"  style="overflow:visible;"/>
			</clipPath>
			<g class="st13">
				<path class="st14" d="M62.8,257h557.6c4.5,0,8.2,3.7,8.2,8.2v332.7c0,4.5-3.7,8.2-8.2,8.2H62.8c-4.5,0-8.2-3.7-8.2-8.2V265.2
					C54.6,260.6,58.2,257,62.8,257z"/>
				<path class="st15" d="M620.3,258.6c3.6,0,6.6,3,6.6,6.6v332.7c0,3.6-3,6.6-6.6,6.6H62.8c-3.6,0-6.6-2.9-6.6-6.6V265.2
					c0-3.6,3-6.6,6.6-6.6L620.3,258.6 M620.3,255.4H62.8c-5.4,0-9.8,4.4-9.8,9.8v332.7c0,5.4,4.4,9.8,9.8,9.8l0,0h557.6
					c5.4,0,9.8-4.4,9.8-9.8V265.2C630.1,259.8,625.7,255.4,620.3,255.4z"/>
				<line class="st16" x1="628.3" y1="284.7" x2="53" y2="284.7"/>
				<circle class="st15" cx="73.6" cy="271.7" r="4.1"/>
				<circle class="st15" cx="88.4" cy="271.7" r="4.1"/>
				<circle class="st15" cx="103.2" cy="271.7" r="4.1"/>
				<g class="st17">
					<line class="st18" x1="54.1" y1="285.3" x2="626.5" y2="602.6"/>
					<line class="st18" x1="629.1" y1="285.3" x2="109.9" y2="573.1"/>
				</g>
				<polyline class="st16" points="82.9,311.9 91.2,320.2 82.9,328.5 				"/>
				<line class="st16" x1="95.5" y1="328.5" x2="115.8" y2="328.5"/>
			</g>
		</g>
	</g>
</g>
<rect y="379.6" class="st0" width="368.4" height="39.3"/>
</svg>
